<svg width="132" height="56" viewBox="0 0 132 56" fill="none" xmlns="http://www.w3.org/2000/svg">
<path d="M24.7905 54.0444V30.4H28.7114V46.2222C28.7114 46.2222 33.3563 40.8507 34.8484 36.6222C36.8499 30.9503 36.3126 27.117 35.3598 21.1555C34.337 14.7555 23.9382 4.26658 20.3583 4.79995C16.7783 5.33332 7.57281 12.2666 5.5271 21.1555C4.19924 26.9253 4.1284 30.8141 6.20899 36.6222C7.72101 40.843 12.346 46.2222 12.346 46.2222V30.4H16.7783V54.0444C16.7783 54.0444 12.346 53.1285 6.72044 46.2222C2.52817 41.0754 1.02519 37.1372 0.58341 30.4C-0.780505 9.59999 14.9029 1.42222 20.6992 0C20.6992 0 41.3264 4.79995 40.474 30.4C40.2539 37.0121 38.7693 40.3555 34.8484 46.2222C31.8313 50.7365 24.7905 54.0444 24.7905 54.0444Z" fill="#E6E6E6"/>
<path d="M32.8026 18.489H7.91357L9.95925 22.5779H30.5865L32.8026 18.489Z" fill="#E6E6E6"/>
<path d="M29.7341 24.7109H10.6411V28.0887H29.7341V24.7109Z" fill="#E6E6E6"/>
<path d="M22.7447 30.2224H18.4829L18.3124 55.4668L20.6155 56.0002L22.7447 55.4668V30.2224Z" fill="#E6E6E6"/>
<path d="M57.7822 24.5585V35.0476H54.9657V24.5585H50.6571V22.4395H62.0732V24.5585H57.7822ZM66.9487 22.4395H71.2132C74.8508 22.4395 76.6696 23.6579 76.6696 26.0948C76.6696 26.9777 76.4165 27.687 75.9103 28.2226C75.41 28.7583 74.7949 29.1762 74.065 29.4764L78.0558 35.0476H74.8332L71.637 30.1562H69.7652V35.0476H66.9487V22.4395ZM71.1426 24.4349H69.7652V28.1785H71.1691C72.0284 28.1785 72.6818 28.0225 73.1291 27.7105C73.5824 27.3986 73.809 26.8983 73.809 26.2096C73.809 25.6033 73.5941 25.156 73.1645 24.8675C72.7348 24.5791 72.0608 24.4349 71.1426 24.4349ZM92.2903 22.4395V30.2975C92.2903 31.2687 92.099 32.1251 91.7164 32.8668C91.3396 33.6026 90.7687 34.1794 90.0035 34.5973C89.2442 35.0152 88.2877 35.2242 87.134 35.2242C85.4859 35.2242 84.2292 34.7886 83.3639 33.9175C82.4987 33.0463 82.066 31.8485 82.066 30.324V22.4395H84.8914V30.2092C84.8914 32.1222 85.6595 33.0787 87.1958 33.0787C88.0022 33.0787 88.5849 32.8285 88.944 32.3282C89.303 31.8279 89.4826 31.1157 89.4826 30.1916V22.4395H92.2903ZM102.084 33.5908V35.0476H97.0156V33.5908L98.137 33.1228V24.3555L97.0156 23.8875V22.4395H102.084V23.8875L100.962 24.3555V33.1228L102.084 33.5908ZM114.897 31.4365C114.897 32.1487 114.717 32.7932 114.358 33.3701C113.999 33.941 113.457 34.3942 112.733 34.7298C112.009 35.0594 111.1 35.2242 110.005 35.2242C109.181 35.2242 108.475 35.1653 107.886 35.0476C107.298 34.9299 106.732 34.7533 106.191 34.5179V32.2134C106.797 32.4842 107.445 32.7049 108.133 32.8756C108.822 33.0404 109.47 33.1228 110.076 33.1228C110.753 33.1228 111.256 32.9904 111.586 32.7255C111.915 32.4548 112.08 32.0987 112.08 31.6572C112.08 31.3452 111.998 31.0833 111.833 30.8714C111.674 30.6595 111.406 30.4535 111.029 30.2534C110.653 30.0532 110.146 29.8178 109.511 29.547C108.84 29.2821 108.266 28.9849 107.789 28.6553C107.312 28.3256 106.947 27.9283 106.694 27.4633C106.441 26.9924 106.315 26.4127 106.315 25.724C106.315 24.9823 106.506 24.3555 106.888 23.8434C107.277 23.3254 107.816 22.934 108.504 22.6691C109.199 22.3983 109.999 22.2629 110.906 22.2629C111.694 22.2629 112.41 22.3424 113.051 22.5013C113.693 22.6544 114.273 22.8427 114.791 23.0664L113.925 25.0883C113.407 24.8646 112.883 24.6851 112.354 24.5497C111.83 24.4084 111.318 24.3378 110.817 24.3378C110.241 24.3378 109.811 24.4614 109.528 24.7086C109.246 24.95 109.105 25.2619 109.105 25.6445C109.105 25.9506 109.187 26.2125 109.352 26.4303C109.517 26.6481 109.79 26.86 110.173 27.066C110.561 27.2661 111.085 27.4986 111.745 27.7635C112.416 28.0402 112.986 28.3374 113.457 28.6553C113.928 28.9731 114.284 29.3528 114.526 29.7942C114.773 30.2298 114.897 30.7772 114.897 31.4365ZM125.961 24.5585V35.0476H123.145V24.5585H118.836V22.4395H130.252V24.5585H125.961Z" fill="#E6E6E6"/>
</svg>
