<svg width="41" height="56" viewBox="0 0 41 56" fill="none" xmlns="http://www.w3.org/2000/svg">
<path d="M24.7905 54.0444V30.4H28.7114V46.2222C28.7114 46.2222 33.3563 40.8507 34.8484 36.6222C36.8499 30.9503 36.3126 27.117 35.3598 21.1555C34.337 14.7555 23.9382 4.26658 20.3583 4.79995C16.7783 5.33332 7.57281 12.2666 5.5271 21.1555C4.19924 26.9253 4.1284 30.8141 6.20899 36.6222C7.72101 40.843 12.346 46.2222 12.346 46.2222V30.4H16.7783V54.0444C16.7783 54.0444 12.346 53.1285 6.72044 46.2222C2.52817 41.0754 1.02519 37.1372 0.58341 30.4C-0.780505 9.59999 14.9029 1.42222 20.6992 0C20.6992 0 41.3264 4.79995 40.474 30.4C40.2539 37.0121 38.7693 40.3555 34.8484 46.2222C31.8313 50.7365 24.7905 54.0444 24.7905 54.0444Z" fill="#E6E6E6"/>
<path d="M32.8026 18.489H7.91357L9.95925 22.5779H30.5865L32.8026 18.489Z" fill="#E6E6E6"/>
<path d="M29.7341 24.7109H10.6411V28.0887H29.7341V24.7109Z" fill="#E6E6E6"/>
<path d="M22.7447 30.2224H18.4829L18.3124 55.4668L20.6155 56.0002L22.7447 55.4668V30.2224Z" fill="#E6E6E6"/>
</svg>
